<?xml version="1.0" encoding="UTF-8"?>
<svg id="Layer_1" data-name="Layer 1" xmlns="http://www.w3.org/2000/svg" viewBox="0 0 1000 1000">
  <defs>
    <style>
      .cls-1 {
        fill: #c8d4e6;
      }

      .cls-2 {
        fill: #060b1a;
      }

      .cls-3 {
        fill: #fff;
      }

      .cls-4 {
        fill: #00d2a5;
      }
    </style>
  </defs>
  <rect class="cls-2" width="1000" height="1000" rx="194.89" ry="194.89"/>
  <g>
    <path class="cls-4" d="M245.63,332.77l13.31-4.23h481.73l13.31,4.23c4.22-25.64,19.78-48.93,44.92-57.51,65.59-22.4,119.67,53.46,76.03,107.24-39.13,48.22-114.29,22.89-120.95-37.29l-5.6,3.68H251.23l-5.6-3.68c-6.84,61.68-84.84,85.86-122.81,35.02-24.17-32.36-14.96-79.85,20.14-99.56,44.74-25.11,95.32,2.39,102.67,52.11ZM168.57,308.41c-36.78,7.65-27.87,69.35,13.46,63.26,41.5-6.11,33.43-73.01-13.46-63.26ZM813.38,308.41c-35.55,7.4-27.58,69.29,13.47,63.27,42.77-6.27,33.59-73.06-13.47-63.27Z"/>
    <path class="cls-3" d="M185.13,610.75l632.56.92c19.71,3.43,20.45,32.95,2.11,38.62l-631.11,1.45c-27.23.34-30.49-37.09-3.56-41Z"/>
    <path class="cls-3" d="M827.69,566.05c-2.3,2.26-5.68,3.61-8.7,4.73-212.19,3.68-426.18,3.68-638.36,0-18-5.18-18.44-28.99-2.69-37.64l635.07-1.67c17.51-.97,26.57,22.9,14.68,34.58Z"/>
    <path class="cls-1" d="M180.94,691.45l376.2,1.13c14.86,8.33,14.99,27.76,0,36.2H177.94c-16.14-9.05-14.53-30.98,3-37.34Z"/>
    <path class="cls-4" d="M185.18,348.84c-10.01,10.1-29.05-8.31-15.16-18.27,13.73-9.85,23.95,9.4,15.16,18.27Z"/>
    <path class="cls-4" d="M814.44,348.84c-8.79-8.87,1.43-28.13,15.16-18.27s-5.15,28.38-15.16,18.27Z"/>
  </g>
</svg>